<svg width="281" height="108" viewBox="0 0 281 108" fill="none" xmlns="http://www.w3.org/2000/svg">
<g filter="url(#filter0_d_537_230)">
<path d="M51.3023 0C45.859 0.00618771 41.2172 7.70827 40.3314 18.204C38.2227 12.9409 34.9924 9.86599 31.5719 9.86581C25.4273 9.8658 20.4462 19.6001 20.4462 31.6079C20.4483 31.8206 20.4519 32.0332 20.4576 32.2457C19.1141 31.2905 17.6955 30.8018 16.2659 30.8014C9.49167 30.8012 4.00004 41.533 4 54.7714C4.00356 62.6095 5.9682 69.9489 9.26059 74.4254C9.2549 74.5156 9.24949 74.6058 9.24515 74.696C9.24487 88.6709 28.0746 100 51.3023 100C74.0231 99.9922 92.626 89.1285 93.3161 75.4648C97.08 71.1679 99.3941 63.29 99.3948 54.7714C99.3948 41.533 93.9031 30.8012 87.1289 30.8014C85.5504 30.8055 83.9872 31.4054 82.525 32.5676C82.5395 32.1305 82.5472 31.6927 82.5482 31.2548C82.5482 19.2469 77.5671 9.51263 71.4225 9.51264C67.8005 9.51313 64.4054 12.9591 62.3221 18.7493C61.5578 8.00118 56.8551 -1.46002e-05 51.3023 0H51.3023Z" fill="url(#paint0_linear_537_230)"/>
<path d="M51.6353 41.114C45.111 41.1175 42.7994 50.4963 38.3499 55.1588C33.0969 60.6631 22.9082 64.0873 22.5166 71.6037C22.2017 77.6487 27.8523 84.3675 33.8103 86.0246C40.1649 87.7919 45.7358 78.9436 52.3395 79.1472C58.1997 79.3279 62.626 87.4652 68.3559 86.251C75.19 84.8028 82.5055 77.631 82.1504 70.8069C81.7417 62.9532 70.1893 60.271 64.5114 54.6979C60.0553 50.3239 57.9516 41.1108 51.6353 41.114V41.114Z" fill="black" stroke="black" stroke-width="0.633465" stroke-linecap="round" stroke-linejoin="round"/>
<path d="M15.3816 64.9546C18.0874 64.9546 20.2808 60.668 20.2808 55.3804C20.2808 50.0927 18.0874 45.8062 15.3816 45.8062C12.6758 45.8062 10.4824 50.0927 10.4824 55.3804C10.4824 60.668 12.6758 64.9546 15.3816 64.9546Z" fill="black" stroke="black" stroke-width="1.08947" stroke-linecap="round" stroke-linejoin="round"/>
<path d="M31.2951 42.5354C34.0009 42.5354 36.1943 38.2489 36.1943 32.9612C36.1943 27.6735 34.0009 23.387 31.2951 23.387C28.5893 23.387 26.3959 27.6735 26.3959 32.9612C26.3959 38.2489 28.5893 42.5354 31.2951 42.5354Z" fill="black" stroke="black" stroke-width="1.08947" stroke-linecap="round" stroke-linejoin="round"/>
<path d="M51.8518 30.7983C55.06 30.7983 57.6607 27.1076 57.6607 22.5549C57.6607 18.0022 55.06 14.3115 51.8518 14.3115C48.6437 14.3115 46.043 18.0022 46.043 22.5549C46.043 27.1076 48.6437 30.7983 51.8518 30.7983Z" fill="black" stroke="black" stroke-width="1.10076" stroke-linecap="round" stroke-linejoin="round"/>
<path d="M72.0848 42.5354C74.7906 42.5354 76.984 38.2489 76.984 32.9612C76.984 27.6735 74.7906 23.387 72.0848 23.387C69.3791 23.387 67.1856 27.6735 67.1856 32.9612C67.1856 38.2489 69.3791 42.5354 72.0848 42.5354Z" fill="black" stroke="black" stroke-width="1.08947" stroke-linecap="round" stroke-linejoin="round"/>
<path d="M89.3106 64.9546C92.0164 64.9546 94.2099 60.668 94.2099 55.3804C94.2099 50.0927 92.0164 45.8062 89.3106 45.8062C86.6049 45.8062 84.4114 50.0927 84.4114 55.3804C84.4114 60.668 86.6049 64.9546 89.3106 64.9546Z" fill="black" stroke="black" stroke-width="1.08947" stroke-linecap="round" stroke-linejoin="round"/>
<path d="M12.1663 42.9738C13.3136 44.6744 17.2247 44.6425 18.4201 42.9738C20.0242 40.7346 18.3439 35.3456 15.5477 35.2694C12.6891 35.1915 10.5923 40.6408 12.1663 42.9738V42.9738Z" fill="black" stroke="black" stroke-width="0.611915" stroke-linecap="round" stroke-linejoin="round"/>
<path d="M27.754 20.7775C28.9014 22.4781 32.8124 22.4462 34.0079 20.7775C35.612 18.5383 33.9316 13.1493 31.1355 13.0731C28.2768 12.9952 26.18 18.4445 27.754 20.7775V20.7775Z" fill="black" stroke="black" stroke-width="0.611915" stroke-linecap="round" stroke-linejoin="round"/>
<path d="M48.6528 11.2648C49.8002 12.9654 53.7112 12.9335 54.9066 11.2648C56.5107 9.02564 54.8304 3.63662 52.0343 3.5604C49.1756 3.48247 47.0788 8.93178 48.6528 11.2648V11.2648Z" fill="black" stroke="black" stroke-width="0.611915" stroke-linecap="round" stroke-linejoin="round"/>
<path d="M68.6429 20.7775C69.7903 22.4781 73.7013 22.4462 74.8968 20.7775C76.5009 18.5383 74.8205 13.1493 72.0244 13.0731C69.1657 12.9952 67.0689 18.4445 68.6429 20.7775V20.7775Z" fill="black" stroke="black" stroke-width="0.611915" stroke-linecap="round" stroke-linejoin="round"/>
<path d="M85.9072 42.9738C87.0545 44.6744 90.9656 44.6425 92.161 42.9738C93.7651 40.7346 92.0848 35.3456 89.2886 35.2694C86.43 35.1915 84.3332 40.6408 85.9072 42.9738V42.9738Z" fill="black" stroke="black" stroke-width="0.611915" stroke-linecap="round" stroke-linejoin="round"/>
<path d="M136.998 76.0902C135.733 76.0902 134.633 74.5053 133.699 71.3355C133.341 70.1267 132.895 68.0113 132.358 64.9892C130.956 65.1772 129.121 65.513 126.853 65.9966L121.369 67.1046C120.681 68.8641 119.506 71.4363 117.843 74.821C117.403 75.5731 116.805 75.9492 116.049 75.9492C115.499 75.9492 115.004 75.7544 114.564 75.3649C114.138 74.9754 113.925 74.4919 113.925 73.9143C113.925 73.2696 114.963 70.8184 117.039 66.5607C116.805 66.2115 116.688 65.8085 116.688 65.3519C116.688 64.2639 117.362 63.5655 118.709 63.2565C120.276 60.3822 122.255 57.0781 124.647 53.3442C127.905 48.2537 129.932 45.7085 130.73 45.7085C131.816 45.7085 132.558 46.4472 132.956 47.9246L134.255 54.694L137.328 68.6962L138.503 71.8795C138.902 72.9674 139.101 73.6927 139.101 74.0554C139.101 74.6329 138.888 75.1164 138.462 75.506C138.036 75.8955 137.548 76.0902 136.998 76.0902V76.0902ZM129.719 53.0621L123.822 62.3499C125.486 61.9336 128.008 61.4299 131.389 60.8389L129.719 53.0621Z" fill="black"/>
<path d="M161.019 60.5973C160.922 62.2762 160.235 63.1157 158.957 63.1157C157.775 63.1157 157.184 62.4508 157.184 61.1211C157.184 60.8659 157.163 60.3958 157.122 59.7108L157.06 58.0185C154.888 58.2737 153.149 58.8714 151.843 59.8116C150.62 60.6846 149.603 62.0009 148.792 63.7604L148.833 74.801C148.833 76.1575 148.153 76.8358 146.792 76.8358C145.582 76.8358 144.977 76.1575 144.977 74.801V60.6577C144.977 60.2145 144.991 59.5496 145.019 58.6632C145.06 57.7767 145.08 57.1119 145.08 56.6686C145.08 55.3121 145.685 54.6338 146.895 54.6338C148.242 54.6338 148.922 55.7486 148.936 57.9782C151.575 55.4934 154.503 54.251 157.72 54.251C158.833 54.251 159.665 54.6607 160.215 55.48C160.765 56.2993 161.039 57.535 161.039 59.187C161.039 59.8854 161.032 60.3555 161.019 60.5973H161.019Z" fill="black"/>
<path d="M182.442 76.3118C181.686 76.3118 181.101 75.9223 180.689 75.1433C179.974 73.7867 178.895 72.1816 177.452 70.3281L173.802 65.4727C173.005 66.0905 171.768 66.9568 170.091 68.0717C169.94 70.1535 169.864 72.1817 169.864 74.1561C169.864 74.7605 169.672 75.2507 169.287 75.6268C168.916 76.0029 168.435 76.1909 167.844 76.1909C166.455 76.1909 165.761 75.2776 165.761 73.4509C165.761 72.3361 165.837 70.6706 165.988 68.4544C166.153 66.2248 166.235 64.5526 166.235 63.4378C166.235 61.3963 166.263 59.0659 166.318 56.4468C166.386 53.8143 166.421 51.4906 166.421 49.4759C166.421 48.8715 166.386 48.1597 166.318 47.3404C166.263 46.521 166.235 45.8092 166.235 45.2047C166.235 44.6003 166.421 44.1101 166.792 43.734C167.177 43.3579 167.665 43.1699 168.256 43.1699C168.847 43.1699 169.328 43.3579 169.699 43.734C170.084 44.1101 170.277 44.6003 170.277 45.2047C170.277 45.8226 170.311 46.5546 170.38 47.4008C170.448 48.2335 170.483 48.9588 170.483 49.5767L170.338 56.064C170.27 58.4011 170.249 60.7381 170.277 63.0752C172.146 61.6783 173.947 60.1471 175.679 58.4817L180.215 53.9083C180.669 53.4516 181.157 53.2233 181.679 53.2233C182.215 53.2233 182.696 53.4315 183.122 53.8478C183.562 54.2642 183.782 54.7477 183.782 55.2984C183.782 55.7551 183.583 56.2051 183.184 56.6483C181.493 58.5824 179.411 60.6575 176.936 62.8737L181.431 68.8574C183.535 71.6645 184.586 73.4912 184.586 74.3374C184.586 74.8746 184.366 75.338 183.926 75.7275C183.5 76.117 183.005 76.3118 182.442 76.3118V76.3118Z" fill="black"/>
<path d="M213.288 50.04C212.27 50.04 210.703 49.9595 208.586 49.7983C206.525 49.6505 204.957 49.5834 203.885 49.5968H202.421C202.463 51.4503 202.648 54.459 202.978 58.6227C203.281 62.5044 203.432 65.5197 203.432 67.6687C203.432 68.1388 203.48 68.8507 203.576 69.8043C203.672 70.7579 203.72 71.4765 203.72 71.96C203.72 72.8734 203.569 73.6591 203.267 74.3172C202.882 75.2037 202.284 75.647 201.473 75.647C200.923 75.647 200.428 75.4589 199.988 75.0828C199.549 74.7067 199.329 74.2232 199.329 73.6322C199.329 73.4308 199.363 73.1286 199.432 72.7256C199.5 72.3227 199.535 72.0205 199.535 71.819C199.535 71.1609 199.487 70.1737 199.39 68.8574C199.308 67.5411 199.267 66.5472 199.267 65.8756C199.267 63.955 199.109 61.2553 198.792 57.7765C198.463 54.0158 198.277 51.316 198.236 49.6774L196.359 49.6976C193.349 49.6976 190.985 49.4827 189.267 49.0529C188.153 48.7708 187.596 48.106 187.596 47.0583C187.596 46.5076 187.775 46.0241 188.133 45.6077C188.545 45.1376 189.074 44.9227 189.72 44.963C190.201 44.9899 191.301 45.1108 193.019 45.3257C194.394 45.4868 195.507 45.5674 196.359 45.5674C197.184 45.5674 198.435 45.554 200.112 45.5272C201.789 45.4869 203.04 45.4667 203.865 45.4667C204.923 45.4667 206.49 45.5406 208.566 45.6883C210.655 45.8361 212.229 45.9099 213.288 45.9099C213.879 45.9099 214.373 46.1114 214.772 46.5144C215.171 46.9039 215.37 47.3941 215.37 47.9851C215.37 48.5626 215.171 49.0529 214.772 49.4558C214.373 49.8453 213.879 50.0401 213.288 50.0401V50.04Z" fill="black"/>
<path d="M224.504 76.6744C222.195 76.6744 220.209 75.8417 218.545 74.1762C216.69 72.3226 215.714 69.8311 215.618 66.7016C215.535 63.6661 216.319 60.9933 217.968 58.6831C219.893 55.9565 222.573 54.5933 226.009 54.5933C228.759 54.5933 230.841 55.8222 232.257 58.2802C233.384 60.268 233.927 62.6588 233.886 65.4525C233.845 68.4343 233.047 70.9795 231.494 73.0882C229.735 75.479 227.405 76.6744 224.504 76.6744V76.6744ZM225.741 58.6831C223.721 58.6696 222.147 59.6098 221.02 61.5037C220.126 63.0214 219.679 64.7541 219.679 66.7016C219.679 68.6492 220.222 70.1669 221.308 71.2549C222.216 72.1548 223.281 72.6047 224.504 72.6047C225.934 72.6047 227.164 72.0943 228.195 71.0735C229.364 69.9453 229.982 68.4208 230.051 66.5002C230.243 61.3022 228.807 58.6965 225.741 58.6831V58.6831Z" fill="black"/>
<path d="M255.804 63.7199C255.804 64.687 255.811 66.1376 255.824 68.0717C255.838 70.0058 255.844 71.4564 255.844 72.4234C255.844 72.7189 255.865 73.1689 255.906 73.7733C255.961 74.3777 255.989 74.8277 255.989 75.1231C255.989 75.7007 255.789 76.1708 255.391 76.5334C254.992 76.9095 254.504 77.0976 253.927 77.0976C252.868 77.0976 252.195 76.4596 251.906 75.1836C250.188 76.0566 248.209 76.4932 245.968 76.4932C244.167 76.4932 242.676 76.1036 241.494 75.3246C240.188 74.465 239.411 73.2092 239.164 71.5571C238.628 67.9978 238.36 64.828 238.36 62.0477C238.36 60.2076 238.566 58.1123 238.978 55.7618C239.171 54.5933 239.824 54.009 240.937 54.009C241.528 54.009 242.023 54.1971 242.422 54.5731C242.82 54.9358 243.02 55.4059 243.02 55.9835C243.02 56.6013 242.916 57.5885 242.71 58.9451C242.518 60.3016 242.422 61.3358 242.422 62.0477C242.422 64.2907 242.497 66.2114 242.648 67.8098C242.8 69.4081 243.026 70.6908 243.329 71.6578C243.782 71.8996 244.229 72.0877 244.669 72.222C245.109 72.3428 245.542 72.4033 245.968 72.4033C247.81 72.4033 249.755 72.1145 251.803 71.5369L251.783 67.4471L251.741 63.5386C251.741 60.6374 251.872 58.119 252.133 55.9835C252.284 54.7478 252.951 54.1299 254.133 54.1299C254.724 54.1299 255.219 54.3179 255.618 54.694C256.016 55.0701 256.202 55.5402 256.175 56.1043L255.804 63.7199Z" fill="black"/>
<path d="M276.979 60.5973C276.883 62.2762 276.196 63.1157 274.917 63.1157C273.735 63.1157 273.144 62.4508 273.144 61.1211C273.144 60.8659 273.124 60.3958 273.082 59.7108L273.021 58.0185C270.849 58.2737 269.11 58.8714 267.804 59.8116C266.581 60.6846 265.563 62.0009 264.752 63.7604L264.794 74.801C264.794 76.1575 264.113 76.8358 262.752 76.8358C261.543 76.8358 260.938 76.1575 260.938 74.801V60.6577C260.938 60.2145 260.952 59.5496 260.979 58.6632C261.02 57.7767 261.041 57.1119 261.041 56.6686C261.041 55.3121 261.646 54.6338 262.855 54.6338C264.203 54.6338 264.883 55.7486 264.897 57.9782C267.536 55.4934 270.464 54.251 273.68 54.251C274.794 54.251 275.625 54.6607 276.175 55.48C276.725 56.2993 277 57.535 277 59.187C277 59.8854 276.993 60.3555 276.98 60.5973H276.979Z" fill="black"/>
</g>
<defs>
<filter id="filter0_d_537_230" x="0" y="0" width="281" height="108" filterUnits="userSpaceOnUse" color-interpolation-filters="sRGB">
<feFlood flood-opacity="0" result="BackgroundImageFix"/>
<feColorMatrix in="SourceAlpha" type="matrix" values="0 0 0 0 0 0 0 0 0 0 0 0 0 0 0 0 0 0 127 0" result="hardAlpha"/>
<feOffset dy="4"/>
<feGaussianBlur stdDeviation="2"/>
<feComposite in2="hardAlpha" operator="out"/>
<feColorMatrix type="matrix" values="0 0 0 0 0 0 0 0 0 0 0 0 0 0 0 0 0 0 0.25 0"/>
<feBlend mode="normal" in2="BackgroundImageFix" result="effect1_dropShadow_537_230"/>
<feBlend mode="normal" in="SourceGraphic" in2="effect1_dropShadow_537_230" result="shape"/>
</filter>
<linearGradient id="paint0_linear_537_230" x1="3.69714" y1="50" x2="99.6976" y2="50" gradientUnits="userSpaceOnUse">
<stop stop-color="#4F7FAB"/>
<stop offset="1" stop-color="#95ACAC"/>
</linearGradient>
</defs>
</svg>
