<svg width="14" height="14" viewBox="0 0 14 14" fill="none" xmlns="http://www.w3.org/2000/svg">
<path d="M12.2499 2.80005L11.3832 3.45005C11.037 3.70969 10.616 3.85005 10.1832 3.85005H8.0324C7.61412 3.85005 7.23174 4.08637 7.04468 4.46049V4.46049C6.81384 4.92217 6.93362 5.48218 7.33311 5.80904L8.55292 6.80706C9.76703 7.80043 10.3953 9.34117 10.2221 10.9003V10.9003C10.1741 11.3323 10.0806 11.7579 9.94316 12.1703L9.7999 12.6" stroke="#0E508D"/>
<path d="M0.350098 5.95L2.50641 5.59061C3.50805 5.42368 4.37642 6.29205 4.20948 7.29369L4.13372 7.74828C3.96514 8.75978 4.47597 9.76294 5.39315 10.2215V10.2215C6.12757 10.5887 6.50841 11.4168 6.30926 12.2133L5.9501 13.65" stroke="#0E508D"/>
<circle cx="7" cy="7" r="6.5" stroke="#0E508D"/>
</svg>
