<svg width="22" height="22" viewBox="0 0 22 22" fill="none" xmlns="http://www.w3.org/2000/svg">
<path fill-rule="evenodd" clip-rule="evenodd" d="M8.25 4.8125C8.25 4.4328 8.5578 4.125 8.9375 4.125L19.9375 4.125C20.3172 4.125 20.625 4.4328 20.625 4.8125V17.1875C20.625 17.5672 20.3172 17.875 19.9375 17.875H8.9375C8.5578 17.875 8.25 17.5672 8.25 17.1875V14.4375C8.25 14.0578 7.9422 13.75 7.5625 13.75C7.1828 13.75 6.875 14.0578 6.875 14.4375V17.1875C6.875 18.3266 7.79841 19.25 8.9375 19.25H19.9375C21.0766 19.25 22 18.3266 22 17.1875V4.8125C22 3.67341 21.0766 2.75 19.9375 2.75L8.9375 2.75C7.79841 2.75 6.875 3.67341 6.875 4.8125V7.5625C6.875 7.9422 7.1828 8.25 7.5625 8.25C7.9422 8.25 8.25 7.9422 8.25 7.5625V4.8125Z" fill="#0E508D"/>
<path fill-rule="evenodd" clip-rule="evenodd" d="M16.2986 11.4861C16.5671 11.2177 16.5671 10.7823 16.2986 10.5139L12.1736 6.38886C11.9052 6.12038 11.4698 6.12038 11.2014 6.38886C10.9329 6.65735 10.9329 7.09265 11.2014 7.36114L14.1527 10.3125H2.0625C1.6828 10.3125 1.375 10.6203 1.375 11C1.375 11.3797 1.6828 11.6875 2.0625 11.6875H14.1527L11.2014 14.6389C10.9329 14.9073 10.9329 15.3427 11.2014 15.6111C11.4698 15.8796 11.9052 15.8796 12.1736 15.6111L16.2986 11.4861Z" fill="#0E508D"/>
</svg>
