<svg width="21" height="22" viewBox="0 0 21 22" fill="none" xmlns="http://www.w3.org/2000/svg">
<path d="M17.9268 3.20654C15.9512 1.23779 13.3171 0.144043 10.5366 0.144043C4.7561 0.144043 0.0731696 4.81071 0.0731696 10.5711C0.0731696 12.394 0.585366 14.217 1.46341 15.7482L0 21.144L5.56098 19.6857C7.09756 20.4878 8.78049 20.9253 10.5366 20.9253C16.3171 20.9253 21 16.2586 21 10.4982C20.9268 7.80029 19.9024 5.17529 17.9268 3.20654ZM15.5854 14.2899C15.3659 14.8732 14.3415 15.4565 13.8293 15.5295C13.3902 15.6024 12.8049 15.6024 12.2195 15.4565C11.8537 15.3107 11.3415 15.1649 10.7561 14.8732C8.12195 13.7795 6.43903 11.1545 6.29268 10.9357C6.14634 10.7899 5.19512 9.55029 5.19512 8.23779C5.19512 6.92529 5.85366 6.34196 6.07317 6.05029C6.29268 5.75863 6.58536 5.75863 6.80488 5.75863C6.95122 5.75863 7.17073 5.75863 7.31707 5.75863C7.46341 5.75863 7.68293 5.68571 7.90244 6.19613C8.12195 6.70654 8.63414 8.01904 8.70731 8.09196C8.78049 8.23779 8.78049 8.38363 8.70731 8.52946C8.63414 8.67529 8.56097 8.82113 8.41463 8.96696C8.26829 9.11279 8.12195 9.33154 8.04878 9.40446C7.90244 9.55029 7.7561 9.69612 7.90244 9.91487C8.04878 10.2065 8.56097 11.0086 9.36585 11.7378C10.3902 12.6128 11.1951 12.9045 11.4878 13.0503C11.7805 13.1961 11.9268 13.1232 12.0732 12.9774C12.2195 12.8315 12.7317 12.2482 12.878 11.9565C13.0244 11.6649 13.2439 11.7378 13.4634 11.8107C13.6829 11.8836 15 12.5399 15.2195 12.6857C15.5122 12.8315 15.6585 12.9045 15.7317 12.9774C15.8049 13.1961 15.8049 13.7065 15.5854 14.2899Z" fill="white"/>
</svg>
