<svg width="50" height="55" viewBox="0 0 50 55" fill="none" xmlns="http://www.w3.org/2000/svg">
<path d="M48.6915 47.1613C48.6915 47.1613 45.5971 50.6445 44.8407 51.6611C43.6068 53.1686 42.1403 53.9073 40.2068 53.9659C40.0209 53.9715 39.8226 53.9775 39.6365 53.9695C35.9523 53.8225 32.5122 52.3478 29.9302 51.0784C22.8697 47.5627 16.6453 42.4562 11.4447 35.903C7.15018 30.4386 4.26132 25.3535 2.32217 19.8585C1.12824 16.5053 0.674687 13.8782 0.830274 11.3825C0.934828 9.78671 1.4765 8.44992 2.49147 7.28935L6.6614 2.52124C7.26109 1.8769 7.90145 1.51719 8.53356 1.49804C9.3144 1.47437 9.9528 1.97229 10.3547 2.3957C10.3673 2.40893 10.3798 2.42216 10.3924 2.43539C11.1579 3.18808 11.8865 3.96912 12.653 4.80346C13.0426 5.22724 13.4445 5.65065 13.8466 6.08766L17.2754 9.69987C18.6068 11.1024 18.623 12.4359 17.3268 13.9181C16.9722 14.3236 16.6299 14.7287 16.2752 15.1206C15.2483 16.3224 16.0552 15.3997 14.9898 16.4937C14.9654 16.5217 14.9408 16.536 14.9287 16.5636C13.877 17.7661 14.0893 18.9031 14.3218 19.672C14.3347 19.7124 14.3476 19.7529 14.3605 19.7933C15.269 22.1071 16.5352 24.2739 18.4512 26.8429L18.4637 26.8562C21.9409 31.3789 25.5915 34.8755 29.6037 37.5172C30.1162 37.8556 30.6402 38.1255 31.1393 38.3827C31.5885 38.6141 32.0127 38.8326 32.3751 39.0667C32.425 39.0924 32.4751 39.1317 32.525 39.1574C32.9492 39.376 33.3472 39.4728 33.7562 39.4604C34.7849 39.4292 35.4208 38.7021 35.6287 38.4644L38.0256 35.7236C38.4414 35.2482 39.1039 34.67 39.8848 34.6464C40.6532 34.6231 41.2918 35.1346 41.6816 35.5856C41.6942 35.5988 41.6942 35.5988 41.7067 35.6121L48.6273 42.9026C49.9208 44.2519 48.6915 47.1613 48.6915 47.1613Z" stroke="black" stroke-width="1.5" stroke-linecap="round" stroke-linejoin="round"/>
</svg>
