<svg width="50" height="55" viewBox="0 0 50 55" fill="none" xmlns="http://www.w3.org/2000/svg">
<path d="M48.6915 47.089C48.6915 47.089 45.5971 50.5722 44.8407 51.5888C43.6068 53.0963 42.1403 53.835 40.2068 53.8936C40.0209 53.8992 39.8226 53.9052 39.6365 53.8973C35.9523 53.7503 32.5122 52.2755 29.9302 51.0062C22.8697 47.4904 16.6453 42.3839 11.4447 35.8307C7.15018 30.3663 4.26132 25.2812 2.32217 19.7862C1.12824 16.433 0.674687 13.806 0.830274 11.3102C0.934828 9.71445 1.4765 8.37765 2.49147 7.21709L6.6614 2.44897C7.26109 1.80464 7.90145 1.44493 8.53356 1.42577C9.3144 1.40211 9.9528 1.90002 10.3547 2.32343C10.3673 2.33666 10.3798 2.34989 10.3924 2.36313C11.1579 3.11582 11.8865 3.89685 12.653 4.73119C13.0426 5.15498 13.4445 5.57838 13.8466 6.0154L17.2754 9.6276C18.6068 11.0301 18.623 12.3636 17.3268 13.8458C16.9722 14.2513 16.6299 14.6564 16.2752 15.0483C15.2483 16.2501 16.0552 15.3274 14.9898 16.4214C14.9654 16.4494 14.9408 16.4638 14.9287 16.4914C13.877 17.6939 14.0893 18.8309 14.3218 19.5997C14.3347 19.6402 14.3476 19.6806 14.3605 19.721C15.269 22.0348 16.5352 24.2016 18.4512 26.7707L18.4637 26.7839C21.9409 31.3067 25.5915 34.8032 29.6037 37.4449C30.1162 37.7833 30.6402 38.0533 31.1393 38.3104C31.5885 38.5418 32.0127 38.7604 32.3751 38.9944C32.425 39.0201 32.4751 39.0594 32.525 39.0851C32.9492 39.3037 33.3472 39.4005 33.7562 39.3881C34.7849 39.357 35.4208 38.6299 35.6287 38.3921L38.0256 35.6513C38.4414 35.1759 39.1039 34.5978 39.8848 34.5741C40.6532 34.5508 41.2918 35.0623 41.6816 35.5133C41.6942 35.5266 41.6942 35.5266 41.7067 35.5398L48.6273 42.8304C49.9208 44.1796 48.6915 47.089 48.6915 47.089Z" stroke="black" stroke-width="1.5" stroke-linecap="round" stroke-linejoin="round"/>
</svg>
