<svg width="22" height="15" viewBox="0 0 22 15" fill="none" xmlns="http://www.w3.org/2000/svg">
<path d="M11.9825 14.144C4.46596 14.144 0.178638 8.88879 0 0.144043H3.76515C3.88882 6.56246 6.66459 9.28118 8.86321 9.84174V0.144043H12.4085V5.67958C14.5796 5.44134 16.8607 2.91882 17.6302 0.144043H21.1755C20.8855 1.58312 20.3075 2.9457 19.4776 4.14654C18.6477 5.34739 17.5837 6.36068 16.3523 7.12302C17.7269 7.8196 18.941 8.80554 19.9145 10.0158C20.888 11.226 21.5988 12.6331 22 14.144H18.0974C17.7373 12.8317 17.0054 11.6568 15.9934 10.7669C14.9814 9.87689 13.7343 9.31132 12.4085 9.14104V14.144H11.9825V14.144Z" fill="white"/>
</svg>
